<?xml version="1.0" encoding="UTF-8" standalone="no"?>
<!DOCTYPE svg PUBLIC "-//W3C//DTD SVG 1.1//EN"
 "http://www.w3.org/Graphics/SVG/1.1/DTD/svg11.dtd">
<!-- Generated by graphviz version 2.38.0 (20140413.2041)
 -->
<!-- Title: finite_state_machine Pages: 1 -->
<svg width="576pt" height="179pt"
 viewBox="0.00 0.00 576.00 179.38" xmlns="http://www.w3.org/2000/svg" xmlns:xlink="http://www.w3.org/1999/xlink">
<g id="graph0" class="graph" transform="scale(0.665078 0.665078) rotate(0) translate(4 265.71)">
<title>finite_state_machine</title>
<polygon fill="white" stroke="none" points="-4,4 -4,-265.71 862.063,-265.71 862.063,4 -4,4"/>
<!-- 0 -->
<g id="node1" class="node"><title>0</title>
<ellipse fill="#ffe1a0" stroke="black" cx="64.1934" cy="-48.855" rx="44.7223" ry="44.7223"/>
<ellipse fill="none" stroke="black" cx="64.1934" cy="-48.855" rx="48.7105" ry="48.7105"/>
<text text-anchor="middle" x="64.1934" y="-58.655" font-family="Times,serif" font-size="14.00">0</text>
<text text-anchor="middle" x="64.1934" y="-44.655" font-family="Times,serif" font-size="14.00">Move</text>
<text text-anchor="middle" x="64.1934" y="-30.655" font-family="Times,serif" font-size="14.00">Forward</text>
</g>
<!-- 1 -->
<g id="node2" class="node"><title>1</title>
<ellipse fill="#ffe1a0" stroke="black" cx="210.193" cy="-48.855" rx="35.2259" ry="35.2259"/>
<ellipse fill="none" stroke="black" cx="210.193" cy="-48.855" rx="39.2112" ry="39.2112"/>
<text text-anchor="middle" x="210.193" y="-58.655" font-family="Times,serif" font-size="14.00">1</text>
<text text-anchor="middle" x="210.193" y="-44.655" font-family="Times,serif" font-size="14.00">Move</text>
<text text-anchor="middle" x="210.193" y="-30.655" font-family="Times,serif" font-size="14.00">Back</text>
</g>
<!-- 2 -->
<g id="node3" class="node"><title>2</title>
<ellipse fill="#ffe1a0" stroke="black" cx="356.193" cy="-48.855" rx="35.2259" ry="35.2259"/>
<ellipse fill="none" stroke="black" cx="356.193" cy="-48.855" rx="39.2112" ry="39.2112"/>
<text text-anchor="middle" x="356.193" y="-58.655" font-family="Times,serif" font-size="14.00">2</text>
<text text-anchor="middle" x="356.193" y="-44.655" font-family="Times,serif" font-size="14.00">Move</text>
<text text-anchor="middle" x="356.193" y="-30.655" font-family="Times,serif" font-size="14.00">Left</text>
</g>
<!-- 3 -->
<g id="node4" class="node"><title>3</title>
<ellipse fill="#ffe1a0" stroke="black" cx="502.193" cy="-48.855" rx="35.2259" ry="35.2259"/>
<ellipse fill="none" stroke="black" cx="502.193" cy="-48.855" rx="39.2112" ry="39.2112"/>
<text text-anchor="middle" x="502.193" y="-58.655" font-family="Times,serif" font-size="14.00">3</text>
<text text-anchor="middle" x="502.193" y="-44.655" font-family="Times,serif" font-size="14.00">Move</text>
<text text-anchor="middle" x="502.193" y="-30.655" font-family="Times,serif" font-size="14.00">Right</text>
</g>
<!-- 5 -->
<g id="node5" class="node"><title>5</title>
<polygon fill="#d6f1ff" stroke="black" points="64.1934,-261.71 -0.193944,-197.71 64.1934,-133.71 128.581,-197.71 64.1934,-261.71"/>
<text text-anchor="middle" x="64.1934" y="-214.51" font-family="Times,serif" font-size="14.00">5</text>
<text text-anchor="middle" x="64.1934" y="-200.51" font-family="Times,serif" font-size="14.00">Front</text>
<text text-anchor="middle" x="64.1934" y="-186.51" font-family="Times,serif" font-size="14.00">Cheese</text>
<text text-anchor="middle" x="64.1934" y="-172.51" font-family="Times,serif" font-size="14.00">Detector</text>
</g>
<!-- 5&#45;&gt;0 -->
<g id="edge1" class="edge"><title>5&#45;&gt;0</title>
<path fill="none" stroke="black" d="M64.1934,-133.578C64.1934,-125.067 64.1934,-116.367 64.1934,-107.949"/>
<polygon fill="black" stroke="black" points="67.6935,-107.852 64.1934,-97.8519 60.6935,-107.852 67.6935,-107.852"/>
</g>
<!-- 6 -->
<g id="node6" class="node"><title>6</title>
<polygon fill="#d6f1ff" stroke="black" points="210.193,-261.71 145.806,-197.71 210.193,-133.71 274.581,-197.71 210.193,-261.71"/>
<text text-anchor="middle" x="210.193" y="-214.51" font-family="Times,serif" font-size="14.00">6</text>
<text text-anchor="middle" x="210.193" y="-200.51" font-family="Times,serif" font-size="14.00">Rear</text>
<text text-anchor="middle" x="210.193" y="-186.51" font-family="Times,serif" font-size="14.00">Cheese</text>
<text text-anchor="middle" x="210.193" y="-172.51" font-family="Times,serif" font-size="14.00">Detector</text>
</g>
<!-- 6&#45;&gt;1 -->
<g id="edge2" class="edge"><title>6&#45;&gt;1</title>
<path fill="none" stroke="black" d="M210.193,-133.578C210.193,-121.793 210.193,-109.647 210.193,-98.3874"/>
<polygon fill="black" stroke="black" points="213.693,-98.3315 210.193,-88.3315 206.693,-98.3315 213.693,-98.3315"/>
</g>
<!-- 7 -->
<g id="node7" class="node"><title>7</title>
<polygon fill="#d6f1ff" stroke="black" points="356.193,-261.71 291.806,-197.71 356.193,-133.71 420.581,-197.71 356.193,-261.71"/>
<text text-anchor="middle" x="356.193" y="-214.51" font-family="Times,serif" font-size="14.00">7</text>
<text text-anchor="middle" x="356.193" y="-200.51" font-family="Times,serif" font-size="14.00">Left</text>
<text text-anchor="middle" x="356.193" y="-186.51" font-family="Times,serif" font-size="14.00">Cheese</text>
<text text-anchor="middle" x="356.193" y="-172.51" font-family="Times,serif" font-size="14.00">Detector</text>
</g>
<!-- 7&#45;&gt;2 -->
<g id="edge3" class="edge"><title>7&#45;&gt;2</title>
<path fill="none" stroke="black" d="M356.193,-133.578C356.193,-121.793 356.193,-109.647 356.193,-98.3874"/>
<polygon fill="black" stroke="black" points="359.693,-98.3315 356.193,-88.3315 352.693,-98.3315 359.693,-98.3315"/>
</g>
<!-- 8 -->
<g id="node8" class="node"><title>8</title>
<polygon fill="#d6f1ff" stroke="black" points="502.193,-261.71 437.806,-197.71 502.193,-133.71 566.581,-197.71 502.193,-261.71"/>
<text text-anchor="middle" x="502.193" y="-214.51" font-family="Times,serif" font-size="14.00">8</text>
<text text-anchor="middle" x="502.193" y="-200.51" font-family="Times,serif" font-size="14.00">Right</text>
<text text-anchor="middle" x="502.193" y="-186.51" font-family="Times,serif" font-size="14.00">Cheese</text>
<text text-anchor="middle" x="502.193" y="-172.51" font-family="Times,serif" font-size="14.00">Detector</text>
</g>
<!-- 8&#45;&gt;3 -->
<g id="edge4" class="edge"><title>8&#45;&gt;3</title>
<path fill="none" stroke="black" d="M502.193,-133.578C502.193,-121.793 502.193,-109.647 502.193,-98.3874"/>
<polygon fill="black" stroke="black" points="505.693,-98.3315 502.193,-88.3315 498.693,-98.3315 505.693,-98.3315"/>
</g>
<!-- 9 -->
<g id="node9" class="node"><title>9</title>
<polygon fill="none" stroke="black" points="611.193,-215.71 584.193,-197.71 611.193,-179.71 638.193,-197.71 611.193,-215.71"/>
<text text-anchor="middle" x="611.193" y="-193.51" font-family="Times,serif" font-size="14.00">9</text>
</g>
<!-- 10 -->
<g id="node10" class="node"><title>10</title>
<polygon fill="none" stroke="black" points="683.193,-215.71 656.193,-197.71 683.193,-179.71 710.193,-197.71 683.193,-215.71"/>
<text text-anchor="middle" x="683.193" y="-193.51" font-family="Times,serif" font-size="14.00">10</text>
</g>
<!-- 11 -->
<g id="node11" class="node"><title>11</title>
<polygon fill="none" stroke="black" points="755.193,-215.71 728.193,-197.71 755.193,-179.71 782.193,-197.71 755.193,-215.71"/>
<text text-anchor="middle" x="755.193" y="-193.51" font-family="Times,serif" font-size="14.00">11</text>
</g>
<!-- etc -->
<g id="node12" class="node"><title>etc</title>
<polygon fill="none" stroke="black" points="829.193,-215.71 800.453,-197.71 829.193,-179.71 857.934,-197.71 829.193,-215.71"/>
<text text-anchor="middle" x="829.193" y="-193.51" font-family="Times,serif" font-size="14.00">etc</text>
</g>
</g>
</svg>
