<?xml version="1.0" encoding="UTF-8" standalone="no"?>
<!DOCTYPE svg PUBLIC "-//W3C//DTD SVG 1.1//EN"
 "http://www.w3.org/Graphics/SVG/1.1/DTD/svg11.dtd">
<!-- Generated by graphviz version 2.38.0 (20140413.2041)
 -->
<!-- Title: finite_state_machine Pages: 1 -->
<svg width="670pt" height="787pt"
 viewBox="0.00 0.00 669.87 787.00" xmlns="http://www.w3.org/2000/svg" xmlns:xlink="http://www.w3.org/1999/xlink">
<g id="graph0" class="graph" transform="scale(1 1) rotate(0) translate(4 783)">
<title>finite_state_machine</title>
<polygon fill="white" stroke="none" points="-4,4 -4,-783 665.871,-783 665.871,4 -4,4"/>
<!-- 0 -->
<g id="node1" class="node"><title>0</title>
<ellipse fill="#ffe1a0" stroke="black" cx="392.967" cy="-395" rx="44.7223" ry="44.7223"/>
<ellipse fill="none" stroke="black" cx="392.967" cy="-395" rx="48.7105" ry="48.7105"/>
<text text-anchor="middle" x="392.967" y="-404.8" font-family="Times,serif" font-size="14.00">0</text>
<text text-anchor="middle" x="392.967" y="-390.8" font-family="Times,serif" font-size="14.00">Move</text>
<text text-anchor="middle" x="392.967" y="-376.8" font-family="Times,serif" font-size="14.00">Forward</text>
</g>
<!-- 11 -->
<g id="node9" class="node"><title>11</title>
<polygon fill="none" stroke="black" points="532.515,-413 505.515,-395 532.515,-377 559.515,-395 532.515,-413"/>
<text text-anchor="middle" x="532.515" y="-390.8" font-family="Times,serif" font-size="14.00">11</text>
</g>
<!-- 0&#45;&gt;11 -->
<g id="edge1" class="edge"><title>0&#45;&gt;11</title>
<path fill="none" stroke="black" d="M442.075,-395C459.487,-395 478.849,-395 495.092,-395"/>
<polygon fill="black" stroke="black" points="495.264,-398.5 505.264,-395 495.264,-391.5 495.264,-398.5"/>
</g>
<!-- 1 -->
<g id="node2" class="node"><title>1</title>
<ellipse fill="#ffe1a0" stroke="black" cx="532.515" cy="-309" rx="35.2259" ry="35.2259"/>
<ellipse fill="none" stroke="black" cx="532.515" cy="-309" rx="39.2112" ry="39.2112"/>
<text text-anchor="middle" x="532.515" y="-318.8" font-family="Times,serif" font-size="14.00">1</text>
<text text-anchor="middle" x="532.515" y="-304.8" font-family="Times,serif" font-size="14.00">Move</text>
<text text-anchor="middle" x="532.515" y="-290.8" font-family="Times,serif" font-size="14.00">Back</text>
</g>
<!-- 2 -->
<g id="node3" class="node"><title>2</title>
<ellipse fill="#ffe1a0" stroke="black" cx="532.515" cy="-171" rx="35.2259" ry="35.2259"/>
<ellipse fill="none" stroke="black" cx="532.515" cy="-171" rx="39.2112" ry="39.2112"/>
<text text-anchor="middle" x="532.515" y="-180.8" font-family="Times,serif" font-size="14.00">2</text>
<text text-anchor="middle" x="532.515" y="-166.8" font-family="Times,serif" font-size="14.00">Move</text>
<text text-anchor="middle" x="532.515" y="-152.8" font-family="Times,serif" font-size="14.00">Left</text>
</g>
<!-- 3 -->
<g id="node4" class="node"><title>3</title>
<ellipse fill="#ffe1a0" stroke="black" cx="532.515" cy="-634" rx="35.2259" ry="35.2259"/>
<ellipse fill="none" stroke="black" cx="532.515" cy="-634" rx="39.2112" ry="39.2112"/>
<text text-anchor="middle" x="532.515" y="-643.8" font-family="Times,serif" font-size="14.00">3</text>
<text text-anchor="middle" x="532.515" y="-629.8" font-family="Times,serif" font-size="14.00">Move</text>
<text text-anchor="middle" x="532.515" y="-615.8" font-family="Times,serif" font-size="14.00">Right</text>
</g>
<!-- 17 -->
<g id="node10" class="node"><title>17</title>
<polygon fill="none" stroke="black" points="634.871,-652 607.871,-634 634.871,-616 661.871,-634 634.871,-652"/>
<text text-anchor="middle" x="634.871" y="-629.8" font-family="Times,serif" font-size="14.00">17</text>
</g>
<!-- 3&#45;&gt;17 -->
<g id="edge2" class="edge"><title>3&#45;&gt;17</title>
<path fill="none" stroke="black" d="M571.456,-627.432C582.862,-627.087 595.167,-627.233 605.812,-627.87"/>
<polygon fill="black" stroke="black" points="605.56,-631.361 615.808,-628.671 606.12,-624.384 605.56,-631.361"/>
</g>
<!-- 5 -->
<g id="node5" class="node"><title>5</title>
<polygon fill="#d6f1ff" stroke="black" points="228.58,-376 164.193,-312 228.58,-248 292.967,-312 228.58,-376"/>
<text text-anchor="middle" x="228.58" y="-328.8" font-family="Times,serif" font-size="14.00">5</text>
<text text-anchor="middle" x="228.58" y="-314.8" font-family="Times,serif" font-size="14.00">Front</text>
<text text-anchor="middle" x="228.58" y="-300.8" font-family="Times,serif" font-size="14.00">Cheese</text>
<text text-anchor="middle" x="228.58" y="-286.8" font-family="Times,serif" font-size="14.00">Detector</text>
</g>
<!-- 5&#45;&gt;0 -->
<g id="edge5" class="edge"><title>5&#45;&gt;0</title>
<path fill="none" stroke="black" d="M271.821,-333.591C292.718,-344.271 318.125,-357.258 340.184,-368.532"/>
<polygon fill="black" stroke="black" points="338.593,-371.65 349.09,-373.085 341.779,-365.417 338.593,-371.65"/>
</g>
<!-- 5&#45;&gt;17 -->
<g id="edge4" class="edge"><title>5&#45;&gt;17</title>
<path fill="none" stroke="black" d="M236.519,-255.595C246.566,-200.99 270.827,-121.049 328.773,-83 420.302,-22.9003 503.19,-37.7219 571.871,-123 632.457,-198.227 634.932,-510.767 634.235,-606.202"/>
<polygon fill="black" stroke="black" points="630.735,-606.211 634.144,-616.242 637.735,-606.275 630.735,-606.211"/>
</g>
<!-- 6 -->
<g id="node6" class="node"><title>6</title>
<polygon fill="#d6f1ff" stroke="black" points="64.1934,-568 -0.193944,-504 64.1934,-440 128.581,-504 64.1934,-568"/>
<text text-anchor="middle" x="64.1934" y="-520.8" font-family="Times,serif" font-size="14.00">6</text>
<text text-anchor="middle" x="64.1934" y="-506.8" font-family="Times,serif" font-size="14.00">Rear</text>
<text text-anchor="middle" x="64.1934" y="-492.8" font-family="Times,serif" font-size="14.00">Cheese</text>
<text text-anchor="middle" x="64.1934" y="-478.8" font-family="Times,serif" font-size="14.00">Detector</text>
</g>
<!-- 20 -->
<g id="node12" class="node"><title>20</title>
<polygon fill="none" stroke="black" points="228.58,-547 201.58,-529 228.58,-511 255.58,-529 228.58,-547"/>
<text text-anchor="middle" x="228.58" y="-524.8" font-family="Times,serif" font-size="14.00">20</text>
</g>
<!-- 6&#45;&gt;20 -->
<g id="edge6" class="edge"><title>6&#45;&gt;20</title>
<path fill="none" stroke="black" d="M120.17,-512.464C145.631,-516.384 174.945,-520.897 196.511,-524.217"/>
<polygon fill="black" stroke="black" points="196.008,-527.68 206.424,-525.743 197.073,-520.762 196.008,-527.68"/>
</g>
<!-- 14 -->
<g id="node13" class="node"><title>14</title>
<polygon fill="none" stroke="black" points="228.58,-493 201.58,-475 228.58,-457 255.58,-475 228.58,-493"/>
<text text-anchor="middle" x="228.58" y="-470.8" font-family="Times,serif" font-size="14.00">14</text>
</g>
<!-- 6&#45;&gt;14 -->
<g id="edge7" class="edge"><title>6&#45;&gt;14</title>
<path fill="none" stroke="black" d="M119.266,-494.343C145.114,-489.727 175.105,-484.371 196.966,-480.467"/>
<polygon fill="black" stroke="black" points="197.762,-483.881 206.991,-478.677 196.531,-476.99 197.762,-483.881"/>
</g>
<!-- 7 -->
<g id="node7" class="node"><title>7</title>
<polygon fill="#d6f1ff" stroke="black" points="392.967,-274 328.579,-210 392.967,-146 457.354,-210 392.967,-274"/>
<text text-anchor="middle" x="392.967" y="-226.8" font-family="Times,serif" font-size="14.00">7</text>
<text text-anchor="middle" x="392.967" y="-212.8" font-family="Times,serif" font-size="14.00">Left</text>
<text text-anchor="middle" x="392.967" y="-198.8" font-family="Times,serif" font-size="14.00">Cheese</text>
<text text-anchor="middle" x="392.967" y="-184.8" font-family="Times,serif" font-size="14.00">Detector</text>
</g>
<!-- 7&#45;&gt;1 -->
<g id="edge9" class="edge"><title>7&#45;&gt;1</title>
<path fill="none" stroke="black" d="M430.827,-236.53C449.682,-250.101 472.649,-266.631 491.884,-280.476"/>
<polygon fill="black" stroke="black" points="489.992,-283.426 500.153,-286.427 494.081,-277.745 489.992,-283.426"/>
</g>
<!-- 7&#45;&gt;2 -->
<g id="edge8" class="edge"><title>7&#45;&gt;2</title>
<path fill="none" stroke="black" d="M443.625,-195.92C456.993,-192.13 471.408,-188.043 484.62,-184.297"/>
<polygon fill="black" stroke="black" points="485.785,-187.604 494.451,-181.509 483.876,-180.87 485.785,-187.604"/>
</g>
<!-- 8 -->
<g id="node8" class="node"><title>8</title>
<polygon fill="#d6f1ff" stroke="black" points="392.967,-698 328.579,-634 392.967,-570 457.354,-634 392.967,-698"/>
<text text-anchor="middle" x="392.967" y="-650.8" font-family="Times,serif" font-size="14.00">8</text>
<text text-anchor="middle" x="392.967" y="-636.8" font-family="Times,serif" font-size="14.00">Right</text>
<text text-anchor="middle" x="392.967" y="-622.8" font-family="Times,serif" font-size="14.00">Cheese</text>
<text text-anchor="middle" x="392.967" y="-608.8" font-family="Times,serif" font-size="14.00">Detector</text>
</g>
<!-- 8&#45;&gt;3 -->
<g id="edge10" class="edge"><title>8&#45;&gt;3</title>
<path fill="none" stroke="black" d="M450.707,-627.343C461.475,-627.175 472.648,-627.235 483.128,-627.521"/>
<polygon fill="black" stroke="black" points="483.217,-631.026 493.335,-627.883 483.465,-624.03 483.217,-631.026"/>
</g>
<!-- 8&#45;&gt;3 -->
<g id="edge11" class="edge"><title>8&#45;&gt;3</title>
<path fill="none" stroke="black" d="M450.707,-640.657C461.475,-640.825 472.648,-640.765 483.128,-640.479"/>
<polygon fill="black" stroke="black" points="483.465,-643.97 493.335,-640.117 483.217,-636.974 483.465,-643.97"/>
</g>
<!-- 17&#45;&gt;3 -->
<g id="edge22" class="edge"><title>17&#45;&gt;3</title>
<path fill="none" stroke="black" d="M615.808,-639.329C606.169,-640.334 593.803,-640.806 581.602,-640.745"/>
<polygon fill="black" stroke="black" points="581.515,-637.243 571.456,-640.568 581.393,-644.242 581.515,-637.243"/>
</g>
<!-- 4 -->
<g id="node11" class="node"><title>4</title>
<polygon fill="none" stroke="black" points="228.58,-720 201.58,-702 228.58,-684 255.58,-702 228.58,-720"/>
<text text-anchor="middle" x="228.58" y="-697.8" font-family="Times,serif" font-size="14.00">4</text>
</g>
<!-- 4&#45;&gt;3 -->
<g id="edge3" class="edge"><title>4&#45;&gt;3</title>
<path fill="none" stroke="black" d="M247.876,-707.136C287.713,-717.33 384.547,-736.687 457.16,-707 474.377,-699.961 489.759,-686.8 502.002,-673.571"/>
<polygon fill="black" stroke="black" points="504.849,-675.634 508.838,-665.819 499.599,-671.004 504.849,-675.634"/>
</g>
<!-- 19 -->
<g id="node21" class="node"><title>19</title>
<polygon fill="none" stroke="black" points="392.967,-552 365.967,-534 392.967,-516 419.967,-534 392.967,-552"/>
<text text-anchor="middle" x="392.967" y="-529.8" font-family="Times,serif" font-size="14.00">19</text>
</g>
<!-- 20&#45;&gt;19 -->
<g id="edge27" class="edge"><title>20&#45;&gt;19</title>
<path fill="none" stroke="black" d="M254.597,-529.77C281.894,-530.611 325.807,-531.963 356.618,-532.912"/>
<polygon fill="black" stroke="black" points="356.818,-536.419 366.921,-533.229 357.034,-529.423 356.818,-536.419"/>
</g>
<!-- 14&#45;&gt;8 -->
<g id="edge18" class="edge"><title>14&#45;&gt;8</title>
<path fill="none" stroke="black" d="M248.679,-479.786C262.175,-483.919 280.053,-490.992 292.773,-502 316.002,-522.101 310.659,-536.191 328.773,-561 336.729,-571.896 345.929,-583.156 354.804,-593.475"/>
<polygon fill="black" stroke="black" points="352.292,-595.92 361.501,-601.16 357.57,-591.321 352.292,-595.92"/>
</g>
<!-- 16 -->
<g id="node19" class="node"><title>16</title>
<polygon fill="none" stroke="black" points="392.967,-328 365.967,-310 392.967,-292 419.967,-310 392.967,-328"/>
<text text-anchor="middle" x="392.967" y="-305.8" font-family="Times,serif" font-size="14.00">16</text>
</g>
<!-- 14&#45;&gt;16 -->
<g id="edge19" class="edge"><title>14&#45;&gt;16</title>
<path fill="none" stroke="black" d="M238.103,-462.771C261.046,-429.901 322.788,-341.798 328.773,-337 338.998,-328.805 352.08,-322.672 363.687,-318.34"/>
<polygon fill="black" stroke="black" points="365.085,-321.56 373.397,-314.991 362.803,-314.943 365.085,-321.56"/>
</g>
<!-- 9 -->
<g id="node14" class="node"><title>9</title>
<polygon fill="none" stroke="black" points="228.58,-655 201.58,-637 228.58,-619 255.58,-637 228.58,-655"/>
<text text-anchor="middle" x="228.58" y="-632.8" font-family="Times,serif" font-size="14.00">9</text>
</g>
<!-- 9&#45;&gt;0 -->
<g id="edge12" class="edge"><title>9&#45;&gt;0</title>
<path fill="none" stroke="black" d="M250.148,-633.287C264.167,-629.689 282.062,-622.816 292.773,-610 338.684,-555.071 292.78,-514.882 328.773,-453 333.392,-445.059 339.454,-437.578 345.996,-430.795"/>
<polygon fill="black" stroke="black" points="348.53,-433.213 353.237,-423.721 343.638,-428.205 348.53,-433.213"/>
</g>
<!-- 9&#45;&gt;8 -->
<g id="edge13" class="edge"><title>9&#45;&gt;8</title>
<path fill="none" stroke="black" d="M254.953,-636.531C272.358,-636.21 296.397,-635.766 319.485,-635.339"/>
<polygon fill="black" stroke="black" points="319.715,-638.836 329.648,-635.151 319.585,-631.837 319.715,-638.836"/>
</g>
<!-- 10 -->
<g id="node15" class="node"><title>10</title>
<polygon fill="none" stroke="black" points="228.58,-779 201.58,-761 228.58,-743 255.58,-761 228.58,-779"/>
<text text-anchor="middle" x="228.58" y="-756.8" font-family="Times,serif" font-size="14.00">10</text>
</g>
<!-- 10&#45;&gt;8 -->
<g id="edge15" class="edge"><title>10&#45;&gt;8</title>
<path fill="none" stroke="black" d="M245.901,-754.336C259.121,-748.571 277.921,-739.52 292.773,-729 314.907,-713.323 336.956,-692.821 354.625,-674.877"/>
<polygon fill="black" stroke="black" points="357.462,-676.979 361.916,-667.366 352.44,-672.103 357.462,-676.979"/>
</g>
<!-- 10&#45;&gt;17 -->
<g id="edge14" class="edge"><title>10&#45;&gt;17</title>
<path fill="none" stroke="black" d="M254.575,-760.11C313.653,-757.015 464.965,-743.223 571.871,-682 587.27,-673.181 603.063,-660.897 614.855,-650.964"/>
<polygon fill="black" stroke="black" points="617.381,-653.408 622.672,-644.23 612.812,-648.105 617.381,-653.408"/>
</g>
<!-- 12 -->
<g id="node16" class="node"><title>12</title>
<polygon fill="none" stroke="black" points="64.1934,-103 37.1934,-85 64.1934,-67 91.1934,-85 64.1934,-103"/>
<text text-anchor="middle" x="64.1934" y="-80.8" font-family="Times,serif" font-size="14.00">12</text>
</g>
<!-- 18 -->
<g id="node17" class="node"><title>18</title>
<polygon fill="none" stroke="black" points="228.58,-103 201.58,-85 228.58,-67 255.58,-85 228.58,-103"/>
<text text-anchor="middle" x="228.58" y="-80.8" font-family="Times,serif" font-size="14.00">18</text>
</g>
<!-- 12&#45;&gt;18 -->
<g id="edge16" class="edge"><title>12&#45;&gt;18</title>
<path fill="none" stroke="black" d="M91.2836,-85C118.391,-85 161.013,-85 191.373,-85"/>
<polygon fill="black" stroke="black" points="191.555,-88.5001 201.555,-85 191.555,-81.5001 191.555,-88.5001"/>
</g>
<!-- 18&#45;&gt;16 -->
<g id="edge24" class="edge"><title>18&#45;&gt;16</title>
<path fill="none" stroke="black" d="M235.074,-98.9126C251.232,-139.27 299.305,-255.267 328.773,-283 338.248,-291.917 351.118,-298.136 362.772,-302.339"/>
<polygon fill="black" stroke="black" points="361.991,-305.765 372.583,-305.529 364.156,-299.108 361.991,-305.765"/>
</g>
<!-- 15 -->
<g id="node20" class="node"><title>15</title>
<polygon fill="none" stroke="black" points="392.967,-36 365.967,-18 392.967,-3.55271e-15 419.967,-18 392.967,-36"/>
<text text-anchor="middle" x="392.967" y="-13.8" font-family="Times,serif" font-size="14.00">15</text>
</g>
<!-- 18&#45;&gt;15 -->
<g id="edge23" class="edge"><title>18&#45;&gt;15</title>
<path fill="none" stroke="black" d="M245.744,-78.3308C273.952,-66.6923 332.381,-42.5847 366.218,-28.624"/>
<polygon fill="black" stroke="black" points="367.959,-31.6917 375.868,-24.6422 365.289,-25.2209 367.959,-31.6917"/>
</g>
<!-- 13 -->
<g id="node18" class="node"><title>13</title>
<polygon fill="none" stroke="black" points="392.967,-498 365.967,-480 392.967,-462 419.967,-480 392.967,-498"/>
<text text-anchor="middle" x="392.967" y="-475.8" font-family="Times,serif" font-size="14.00">13</text>
</g>
<!-- 13&#45;&gt;11 -->
<g id="edge17" class="edge"><title>13&#45;&gt;11</title>
<path fill="none" stroke="black" d="M411.174,-474.032C424.219,-469.183 442.364,-461.731 457.16,-453 477.197,-441.176 497.901,-424.606 512.357,-412.204"/>
<polygon fill="black" stroke="black" points="514.863,-414.663 520.095,-405.45 510.259,-409.389 514.863,-414.663"/>
</g>
<!-- 16&#45;&gt;1 -->
<g id="edge20" class="edge"><title>16&#45;&gt;1</title>
<path fill="none" stroke="black" d="M419.839,-309.812C437.561,-309.683 461.612,-309.508 482.856,-309.354"/>
<polygon fill="black" stroke="black" points="483.045,-312.853 493.019,-309.28 482.994,-305.853 483.045,-312.853"/>
</g>
<!-- 16&#45;&gt;11 -->
<g id="edge21" class="edge"><title>16&#45;&gt;11</title>
<path fill="none" stroke="black" d="M411.174,-315.968C424.219,-320.817 442.364,-328.269 457.16,-337 477.197,-348.824 497.901,-365.394 512.357,-377.796"/>
<polygon fill="black" stroke="black" points="510.259,-380.611 520.095,-384.55 514.863,-375.337 510.259,-380.611"/>
</g>
<!-- 19&#45;&gt;3 -->
<g id="edge26" class="edge"><title>19&#45;&gt;3</title>
<path fill="none" stroke="black" d="M411.748,-539.59C424.927,-544.196 442.984,-551.508 457.16,-561 472.239,-571.096 486.918,-584.489 499.194,-597.044"/>
<polygon fill="black" stroke="black" points="496.693,-599.492 506.13,-604.308 501.756,-594.659 496.693,-599.492"/>
</g>
<!-- 19&#45;&gt;17 -->
<g id="edge25" class="edge"><title>19&#45;&gt;17</title>
<path fill="none" stroke="black" d="M414.914,-537.489C449.173,-543.761 518.695,-558.882 571.871,-586 587.679,-594.062 603.465,-606.36 615.151,-616.489"/>
<polygon fill="black" stroke="black" points="613.088,-619.339 622.878,-623.39 617.751,-614.118 613.088,-619.339"/>
</g>
<!-- 21 -->
<g id="node22" class="node"><title>21</title>
<polygon fill="none" stroke="black" points="228.58,-601 201.58,-583 228.58,-565 255.58,-583 228.58,-601"/>
<text text-anchor="middle" x="228.58" y="-578.8" font-family="Times,serif" font-size="14.00">21</text>
</g>
<!-- 21&#45;&gt;8 -->
<g id="edge29" class="edge"><title>21&#45;&gt;8</title>
<path fill="none" stroke="black" d="M247.267,-588.555C267.962,-595.054 303.29,-606.15 333.857,-615.75"/>
<polygon fill="black" stroke="black" points="333.001,-619.149 343.59,-618.806 335.098,-612.471 333.001,-619.149"/>
</g>
<!-- 21&#45;&gt;16 -->
<g id="edge28" class="edge"><title>21&#45;&gt;16</title>
<path fill="none" stroke="black" d="M250.398,-579.489C264.534,-575.987 282.467,-569.144 292.773,-556 353.638,-478.377 267.909,-414.623 328.773,-337 336.825,-326.731 349.532,-320.309 361.446,-316.32"/>
<polygon fill="black" stroke="black" points="362.516,-319.654 371.149,-313.511 360.57,-312.93 362.516,-319.654"/>
</g>
<!-- 22 -->
<g id="node23" class="node"><title>22</title>
<polygon fill="none" stroke="black" points="392.967,-128 365.967,-110 392.967,-92 419.967,-110 392.967,-128"/>
<text text-anchor="middle" x="392.967" y="-105.8" font-family="Times,serif" font-size="14.00">22</text>
</g>
<!-- 22&#45;&gt;2 -->
<g id="edge30" class="edge"><title>22&#45;&gt;2</title>
<path fill="none" stroke="black" d="M410.119,-116.769C422.916,-122.164 441.23,-129.956 457.16,-137 466.9,-141.307 477.317,-146.009 487.177,-150.506"/>
<polygon fill="black" stroke="black" points="485.871,-153.757 496.421,-154.734 488.783,-147.391 485.871,-153.757"/>
</g>
<!-- 23 -->
<g id="node24" class="node"><title>23</title>
<polygon fill="none" stroke="black" points="64.1934,-626 37.1934,-608 64.1934,-590 91.1934,-608 64.1934,-626"/>
<text text-anchor="middle" x="64.1934" y="-603.8" font-family="Times,serif" font-size="14.00">23</text>
</g>
<!-- 23&#45;&gt;4 -->
<g id="edge31" class="edge"><title>23&#45;&gt;4</title>
<path fill="none" stroke="black" d="M79.32,-616.177C107.392,-632.427 170.423,-668.914 204.561,-688.675"/>
<polygon fill="black" stroke="black" points="202.962,-691.794 213.37,-693.775 206.469,-685.736 202.962,-691.794"/>
</g>
<!-- 23&#45;&gt;21 -->
<g id="edge32" class="edge"><title>23&#45;&gt;21</title>
<path fill="none" stroke="black" d="M86.4226,-604.732C114.383,-600.427 163.78,-592.822 196.096,-587.847"/>
<polygon fill="black" stroke="black" points="196.995,-591.25 206.346,-586.269 195.929,-584.332 196.995,-591.25"/>
</g>
<!-- 24 -->
<g id="node25" class="node"><title>24</title>
<polygon fill="none" stroke="black" points="64.1934,-330 37.1934,-312 64.1934,-294 91.1934,-312 64.1934,-330"/>
<text text-anchor="middle" x="64.1934" y="-307.8" font-family="Times,serif" font-size="14.00">24</text>
</g>
<!-- 24&#45;&gt;5 -->
<g id="edge33" class="edge"><title>24&#45;&gt;5</title>
<path fill="none" stroke="black" d="M91.2836,-312C108.31,-312 131.458,-312 153.844,-312"/>
<polygon fill="black" stroke="black" points="154.05,-315.5 164.05,-312 154.05,-308.5 154.05,-315.5"/>
</g>
</g>
</svg>
